<svg width="775" height="661" viewBox="0 0 775 661" fill="none" xmlns="http://www.w3.org/2000/svg">
<path d="M448.916 355.255L409.208 315.377C387.303 337.33 375 367.076 375 398.089C375 429.101 387.303 458.847 409.208 480.8L449.085 440.923C437.723 429.574 431.325 414.183 431.293 398.124C431.261 382.065 437.599 366.648 448.916 355.255Z" fill="#E8710A"/>
<path d="M409.208 315.377L448.917 355.254C454.55 349.614 461.241 345.139 468.605 342.086C475.969 339.034 483.863 337.462 491.835 337.462C499.807 337.462 507.701 339.034 515.065 342.086C522.43 345.139 529.12 349.614 534.754 355.254L563.648 305.746L561.958 304.394C539.421 287.58 511.585 279.437 483.539 281.453C455.493 283.47 429.108 295.511 409.208 315.377Z" fill="#F9AB00"/>
<path d="M563.817 490.431L534.754 441.092C529.12 446.732 522.43 451.207 515.065 454.259C507.701 457.312 499.807 458.884 491.835 458.884C483.863 458.884 475.969 457.312 468.605 454.259C461.241 451.207 454.55 446.732 448.917 441.092L409.208 480.969C429.069 500.657 455.32 512.588 483.213 514.602C511.106 516.617 538.799 508.582 561.282 491.952L563.141 490.431" fill="#F9AB00"/>
<path d="M574.969 315.377C553.063 337.33 540.761 367.076 540.761 398.089C540.761 429.101 553.063 458.847 574.969 480.8L614.846 440.923C603.463 429.54 597.069 414.102 597.069 398.004C597.069 381.906 603.463 366.468 614.846 355.085C626.229 343.703 641.667 337.308 657.765 337.308C673.862 337.308 689.301 343.703 700.683 355.085L740.73 315.377C729.853 304.48 716.934 295.834 702.713 289.935C688.491 284.036 673.246 281 657.849 281C642.453 281 627.207 284.036 612.986 289.935C598.764 295.834 585.845 304.48 574.969 315.377Z" fill="#F9AB00"/>
<path d="M740.73 315.377L701.021 355.255C712.404 366.637 718.799 382.076 718.799 398.173C718.799 414.271 712.404 429.709 701.021 441.092C689.639 452.475 674.2 458.869 658.103 458.869C642.005 458.869 626.567 452.475 615.184 441.092L574.969 480.969C596.928 502.95 626.719 515.308 657.79 515.324C673.174 515.332 688.409 512.309 702.626 506.429C716.842 500.549 729.761 491.926 740.645 481.054C751.529 470.181 760.165 457.27 766.06 443.06C771.954 428.85 774.992 413.617 775 398.233C775.008 382.849 771.985 367.613 766.105 353.397C760.225 339.18 751.602 326.261 740.73 315.377Z" fill="#E8710A"/>
<g clip-path="url(#clip0_39_92)">
<path d="M126.413 193.095C126.413 204.184 125.527 207.796 123.247 210.457C120.709 212.744 117.415 214.008 114 214.006L114.887 220.343C120.181 220.414 125.317 218.543 129.326 215.083C131.484 212.451 133.089 209.412 134.046 206.145C135.004 202.879 135.294 199.454 134.9 196.073V154.123H126.413V192.841V193.095Z" fill="#4E4E4E"/>
<path d="M189.704 188.096C189.704 192.849 189.704 197.095 190.084 200.77H182.547L182.04 193.229C180.464 195.897 178.21 198.1 175.507 199.614C172.803 201.128 169.748 201.898 166.651 201.847C159.304 201.847 150.564 197.855 150.564 181.569V154.511H159.051V179.858C159.051 188.667 161.774 194.56 169.437 194.56C171.014 194.577 172.578 194.279 174.038 193.683C175.498 193.087 176.824 192.205 177.939 191.09C179.054 189.974 179.935 188.647 180.531 187.187C181.126 185.726 181.424 184.161 181.407 182.583V154.194H189.894V187.843L189.704 188.096Z" fill="#4E4E4E"/>
<path d="M205.79 169.586C205.79 163.693 205.79 158.877 205.41 154.505H213.01L213.39 162.426C215.083 159.564 217.521 157.216 220.443 155.631C223.365 154.046 226.662 153.285 229.983 153.428C241.256 153.428 249.743 162.869 249.743 176.937C249.743 193.54 239.546 201.778 228.526 201.778C225.706 201.903 222.901 201.299 220.382 200.022C217.863 198.746 215.717 196.84 214.15 194.49V219.837H205.79V169.777V169.586ZM214.15 181.943C214.173 183.093 214.3 184.238 214.53 185.365C215.248 188.179 216.884 190.672 219.178 192.451C221.472 194.23 224.294 195.193 227.196 195.187C236.126 195.187 241.383 187.9 241.383 177.317C241.383 168.066 236.443 160.145 227.513 160.145C223.979 160.434 220.672 162.003 218.212 164.558C215.752 167.113 214.308 170.478 214.15 174.022V181.943Z" fill="#4E4E4E"/>
<path d="M264.864 154.462L275.06 181.773C276.137 184.815 277.277 188.49 278.037 191.215C278.923 188.427 279.873 184.878 281.013 181.583L290.26 154.462H299.19L286.523 187.413C280.19 203.255 276.327 211.43 270.5 216.372C267.565 219.055 263.987 220.932 260.114 221.822L258.024 214.725C260.732 213.834 263.247 212.437 265.434 210.606C268.523 208.087 270.975 204.873 272.59 201.227C272.936 200.596 273.171 199.91 273.287 199.2C273.215 198.435 273.022 197.686 272.717 196.982L255.49 154.335H264.737L264.864 154.462Z" fill="#4E4E4E"/>
<path d="M321.719 141.168V154.476H333.879V160.813H321.719V185.78C321.719 191.483 323.366 194.778 328.052 194.778C329.717 194.805 331.378 194.613 332.992 194.208L333.372 200.544C330.951 201.384 328.397 201.77 325.836 201.685C324.14 201.791 322.441 201.529 320.856 200.917C319.271 200.304 317.837 199.356 316.653 198.136C314.073 194.684 312.896 190.382 313.359 186.097V160.749H306.139V154.412H313.486V143.133L321.719 141.168Z" fill="#4E4E4E"/>
<path d="M349.512 179.098C349.34 181.247 349.636 183.408 350.381 185.431C351.125 187.455 352.3 189.292 353.824 190.816C355.347 192.341 357.183 193.516 359.206 194.261C361.228 195.006 363.387 195.302 365.535 195.13C369.879 195.228 374.195 194.407 378.201 192.722L379.658 199.059C374.742 201.085 369.456 202.057 364.142 201.911C361.043 202.123 357.936 201.662 355.032 200.56C352.129 199.458 349.498 197.74 347.32 195.525C345.142 193.31 343.469 190.65 342.415 187.727C341.362 184.804 340.952 181.687 341.215 178.591C341.215 164.65 349.512 153.624 363.065 153.624C378.265 153.624 382.065 166.932 382.065 175.423C382.146 176.731 382.146 178.043 382.065 179.352H349.322L349.512 179.098ZM374.338 172.761C374.583 171.067 374.461 169.34 373.982 167.697C373.503 166.054 372.678 164.532 371.562 163.235C370.445 161.938 369.064 160.896 367.511 160.178C365.958 159.46 364.269 159.084 362.558 159.074C359.079 159.326 355.818 160.869 353.417 163.401C351.015 165.933 349.645 169.271 349.575 172.761H374.338Z" fill="#4E4E4E"/>
<path d="M394.941 168.872C394.941 163.422 394.941 158.733 394.561 154.424H402.161V163.486H402.541C403.339 160.689 404.987 158.21 407.257 156.393C409.527 154.576 412.306 153.511 415.208 153.347C416.007 153.242 416.816 153.242 417.614 153.347V161.268C416.647 161.156 415.669 161.156 414.701 161.268C411.826 161.379 409.09 162.534 407.004 164.516C404.918 166.499 403.624 169.173 403.365 172.04C403.128 173.337 403.001 174.651 402.985 175.969V200.619H394.625V168.935L394.941 168.872Z" fill="#4E4E4E"/>
<path d="M391.222 27.1832C391.482 31.4403 390.47 35.6785 388.314 39.3579C386.158 43.0374 382.957 45.9914 379.117 47.8438C375.278 49.6962 370.974 50.3631 366.754 49.7595C362.534 49.1558 358.59 47.3091 355.423 44.4544C352.255 41.5998 350.009 37.8665 348.97 33.73C347.931 29.5936 348.146 25.2413 349.588 21.2277C351.03 17.214 353.633 13.7206 357.066 11.1926C360.5 8.66448 364.607 7.21615 368.866 7.03207C371.658 6.87834 374.453 7.2784 377.09 8.20926C379.727 9.14011 382.154 10.5834 384.232 12.4561C386.31 14.3288 387.997 16.594 389.196 19.1214C390.396 21.6488 391.085 24.3886 391.222 27.1832Z" fill="#767677"/>
<path d="M265.991 275.353C208.992 275.353 158.896 254.885 132.993 224.658C143.043 251.851 161.178 275.31 184.956 291.878C208.735 308.446 237.016 317.327 265.991 317.327C294.967 317.327 323.247 308.446 347.026 291.878C370.804 275.31 388.939 251.851 398.99 224.658C373.15 254.885 323.244 275.353 265.991 275.353Z" fill="#F37726"/>
<path d="M265.991 78.7971C322.99 78.7971 373.087 99.265 398.99 129.491C388.939 102.299 370.804 78.8403 347.026 62.2723C323.247 45.7043 294.967 36.8225 265.991 36.8225C237.016 36.8225 208.735 45.7043 184.956 62.2723C161.178 78.8403 143.043 102.299 132.993 129.491C158.896 99.2016 208.739 78.7971 265.991 78.7971Z" fill="#F37726"/>
<path d="M187.525 334.175C187.859 339.537 186.59 344.877 183.88 349.515C181.17 354.154 177.142 357.88 172.308 360.219C167.474 362.558 162.054 363.404 156.737 362.65C151.421 361.895 146.449 359.574 142.456 355.983C138.463 352.391 135.628 347.692 134.314 342.482C133 337.273 133.265 331.791 135.076 326.733C136.887 321.675 140.162 317.271 144.484 314.083C148.805 310.894 153.977 309.064 159.342 308.828C162.856 308.64 166.373 309.146 169.691 310.318C173.009 311.49 176.064 313.305 178.682 315.659C181.299 318.013 183.427 320.86 184.944 324.037C186.462 327.214 187.338 330.659 187.525 334.175Z" fill="#9E9E9E"/>
<path d="M139.471 71.9088C136.4 71.9936 133.372 71.168 130.768 69.5357C128.165 67.9033 126.101 65.5371 124.838 62.7348C123.575 59.9323 123.168 56.8188 123.669 53.7857C124.17 50.7526 125.556 47.9353 127.652 45.6882C129.749 43.441 132.463 41.8644 135.453 41.1565C138.443 40.4486 141.575 40.641 144.456 41.7096C147.337 42.7782 149.838 44.6753 151.644 47.1622C153.45 49.6491 154.481 52.6149 154.607 55.6865C154.727 59.8399 153.205 63.873 150.371 66.9102C147.537 69.9474 143.62 71.7437 139.471 71.9088Z" fill="#616262"/>
</g>
<g clip-path="url(#clip1_39_92)">
<path d="M295.948 653.355H320.785V617.853C320.785 612.702 323.58 610.349 327.494 610.349C331.633 610.349 334.096 612.702 334.096 617.853V653.355H358.928V617.853C358.928 612.702 361.611 610.349 365.642 610.349C369.893 610.349 372.351 612.702 372.351 617.853V653.355H397.296V613.039C397.296 594.557 387.567 588.398 375.484 588.398C364.968 588.398 358.479 594.449 356.915 600.046H356.021C352.215 591.313 346.624 588.398 338.347 588.398C329.508 588.398 323.243 593.662 321.679 599.038H320.785V590.08H295.948V653.355ZM405.129 621.772C405.129 641.262 416.651 655.038 433.094 655.038C441.596 655.038 448.197 651.34 450.993 644.398H451.775V653.355H476.387V590.08H451.775V599.038H450.993C448.197 592.208 441.596 588.398 433.094 588.398C417.658 588.398 405.129 601.504 405.129 621.772ZM441.035 633.087C434.882 633.087 430.074 629.164 430.074 621.664C430.074 614.384 434.77 610.349 441.035 610.349C447.078 610.349 451.887 614.272 451.887 621.664C451.887 629.164 447.078 633.087 441.035 633.087ZM530.528 617.07V588.398C520.682 588.398 513.861 593.662 510.504 604.077H509.61V590.08H487.123V653.355H511.623V630.509C511.623 621.214 516.768 616.175 524.264 616.175C527.059 616.175 529.185 616.621 530.528 617.07ZM538.132 653.355H562.856V590.08H538.132V653.355ZM538.132 583.471H562.856V576.642H538.132V583.471ZM573.593 653.355H598.429V617.853C598.429 612.702 601.225 610.349 605.139 610.349C609.278 610.349 611.74 612.702 611.74 617.853V653.355H636.573V617.853C636.573 612.702 639.26 610.349 643.286 610.349C647.538 610.349 649.996 612.702 649.996 617.853V653.355H674.941V613.039C674.941 594.557 665.212 588.398 653.128 588.398C642.613 588.398 636.128 594.449 634.56 600.046H633.665C629.863 591.313 624.269 588.398 615.991 588.398C607.152 588.398 600.888 593.662 599.324 599.038H598.429V590.08H573.593V653.355ZM716.445 655.038C735.908 655.038 750.001 641.149 750.001 621.664C750.001 601.616 735.908 588.398 716.445 588.398C696.866 588.398 682.773 601.616 682.773 621.664C682.773 641.149 694.632 655.038 716.445 655.038ZM716.445 633.087C710.293 633.087 705.481 629.164 705.481 621.664C705.481 614.384 710.181 610.349 716.445 610.349C722.485 610.349 727.294 614.272 727.294 621.664C727.294 629.164 722.485 633.087 716.445 633.087Z" fill="#1C7361"/>
<path d="M31.4964 459.386C33.1062 457.487 34.8907 454.955 33.7385 452.711C40.1775 448.913 45.8678 443.903 50.5224 438.035C47.9934 440.051 45.2356 441.662 42.3031 442.928C64.3198 421.173 97.4301 411.274 127.837 417.375C103.349 416.455 78.4042 422.955 58.1677 436.769C37.8773 450.524 22.4743 471.642 16.5552 495.467C25.5191 469.398 44.4328 446.897 68.5751 433.662C66.6783 435.619 64.7773 437.631 62.8265 439.588C72.0234 435.79 80.355 430.093 89.4978 426.12C116.34 414.381 148.643 418.812 173.646 434.12C198.65 449.429 216.644 474.52 227.105 501.914C231.702 513.883 234.921 527.176 230.841 539.319C229.922 523.494 224.747 508.244 218.021 493.914C206.869 470.031 190.892 447.647 168.418 433.95C145.943 420.311 116.223 416.684 93.2331 429.519C105.017 428.253 116.914 427.561 128.581 429.231C150.54 432.338 170.83 443.849 186.233 459.786C201.582 475.786 212.218 495.984 218.483 517.218C224.576 537.995 226.586 560.9 218.77 581.156C241.589 544.208 237.796 492.764 209.918 459.557C198.25 445.689 183.13 435.041 166.808 427.332C147.953 418.47 127.259 413.348 106.452 413.923C85.646 414.497 64.8356 421.002 48.2263 433.546C62.0195 421.344 80.0098 414.439 98.2912 412.54C116.627 410.699 135.191 413.694 152.611 419.561C188.821 431.876 221.814 459.041 232.451 495.813C235.15 505.25 236.356 515.032 237.45 524.818C238.37 533.277 239.118 541.735 238.944 550.251C238.141 592.321 211.295 633.411 172.153 648.774C161.059 653.093 149.334 655.45 137.549 657.12C118.694 659.764 99.1522 660.572 80.9873 654.933C71.6199 651.998 62.8806 647.45 54.7777 641.87C21.2098 618.848 0 578.74 0 537.995C0 530.745 0.632257 523.552 1.60976 516.415C2.47079 509.856 3.61885 503.351 5.51562 497.021C8.38989 487.696 12.8739 478.893 18.7972 471.126C19.8288 470.493 20.8645 469.802 21.842 469.11C8.21935 497.941 0.112313 532.011 12.5869 561.416C8.10288 542.255 7.81588 522.17 11.7841 502.947C13.0486 502.489 14.3132 501.972 15.5194 501.452C15.5777 500.186 15.6318 498.978 15.69 497.712C14.7707 498.749 13.9097 499.782 12.9904 500.76C15.116 485.51 21.6673 471.068 31.4964 459.386ZM40.7515 458.637C44.3163 456.221 47.8811 453.802 51.4458 451.386C49.2038 455.934 45.065 459.499 40.2357 461.11C17.8197 484.302 10.9189 518.888 13.5644 551.001C14.6002 563.144 17.071 575.746 24.8868 585.07C19.4295 562.624 19.1383 538.915 24.1423 516.356C25.1198 516.298 25.4609 517.564 25.4609 518.543C25.8644 533.681 23.2771 548.814 24.3711 563.948C25.4609 579.028 31.0971 594.969 43.7423 603.198C53.6296 609.641 63.4588 616.087 73.2879 622.534C50.2936 615.167 30.2319 599.167 17.8197 578.453C21.1515 587.486 25.8061 596.06 31.5547 603.773C30.8101 601.699 30.1196 599.571 29.3709 597.443C35.1777 602.911 41.0385 608.262 46.8453 613.672C51.1006 617.641 57.7684 621.668 62.136 617.87C62.8265 619.311 61.562 621.093 60.0104 621.497C58.4548 621.959 56.7909 621.497 55.2394 621.035C62.1942 626.044 69.4361 630.646 76.9067 634.848C75.8169 635.019 75.4717 636.631 76.1621 637.551C76.8485 638.475 78.0007 638.705 79.0905 638.992C106.511 644.918 135.711 642.732 161.92 632.604C139.388 637.897 115.362 639.108 93.5201 631.454C75.0682 625.008 58.9165 612.289 48.3386 595.889C44.9486 590.592 42.1325 585.012 39.5453 579.315C31.2094 560.554 25.9226 540.069 27.4159 519.58C28.9133 499.095 37.8773 478.664 53.9749 466.004C55.6387 464.679 57.7102 463.413 59.7775 463.93C43.9128 475.44 34.4872 494.489 32.0164 513.941C29.5456 533.447 33.5679 553.245 40.6392 571.544C45.6973 584.495 52.4192 597.039 61.6743 607.396C65.6425 611.827 70.1266 615.858 75.2387 618.907C84.6103 624.545 95.7039 626.677 106.569 628.056C121.339 629.955 136.227 630.763 151.114 630.417C132.317 634.848 112.658 631.683 93.6324 628.518C125.94 640.662 163.817 633.237 191.583 612.806C197.098 608.72 202.331 604.177 206.524 598.709C212.963 590.305 216.815 580.064 218.77 569.645C223.828 542.484 216.586 514.112 203.421 489.77C194.282 472.85 182.153 457.2 166.176 446.551C151.23 436.652 133.469 431.418 115.591 430.439C88.1168 428.827 59.0329 437.918 40.7515 458.637ZM94.7264 645.551C107.085 648.658 119.559 650.902 132.204 652.401C116.685 655.966 100.704 650.502 85.7043 645.151C76.8485 642.04 67.8846 638.817 59.6652 634.215C39.774 623.167 24.8286 604.231 16.1517 583.171C14.6584 579.431 13.2774 575.688 12.1294 571.89C12.0129 571.432 11.6677 572.523 12.1294 572.294C12.5869 572.123 12.5287 571.432 12.2999 570.969C7.12538 558.484 3.96408 545.075 2.98659 531.607C2.00908 551.979 7.06715 572.464 16.264 590.709C26.2678 610.561 41.2715 628.002 60.1228 639.796C78.92 651.594 101.565 657.578 123.64 655.45C154.679 652.401 181.924 634.274 206.927 615.683C195.892 630.301 179.166 639.338 162.898 647.854C191.004 639.971 213.537 617.699 227.105 591.804C220.379 603.311 209.86 612.348 198.421 619.136C186.924 625.928 174.337 630.646 161.75 635.194C156.23 637.209 150.656 639.163 144.966 640.774C128.698 645.438 111.569 647.05 94.7264 645.551ZM209.685 606.651C212.559 603.944 215.38 601.183 217.676 598.076C221.299 593.07 223.711 587.257 226.011 581.501C229.115 573.676 232.276 565.789 233.083 557.389C231.585 558.713 231.07 560.67 230.496 562.569C222.85 589.097 203.941 612.231 179.395 624.891C190.95 622.301 200.892 614.763 209.685 606.651ZM69.2073 634.848C70.4136 635.136 71.9069 635.652 71.9651 636.864C72.4227 636.056 73.8037 636.056 74.3194 636.864C74.5524 636.805 74.3777 636.402 74.0907 636.285C72.3686 635.365 70.6424 634.444 68.9744 633.524C62.0195 629.784 55.6387 625.124 49.9484 619.714C49.2579 621.21 49.7778 623.109 51.1006 624.029C53.6296 625.87 56.1587 627.71 58.6877 629.555C61.7325 632.087 65.3555 633.928 69.2073 634.848ZM235.208 547.836C234.98 552.096 234.747 556.41 234.46 560.67C234.406 561.245 234.406 561.82 234.406 562.395C234.347 563.432 234.289 564.468 234.173 565.447C234.114 566.713 234.06 567.863 234.06 569.129C236.473 559.346 237.334 549.102 236.589 539.09C236.302 538.974 236.011 538.803 235.782 538.628C235.612 541.676 235.379 544.729 235.208 547.836ZM11.7841 484.765C11.3807 485.51 11.0354 486.26 10.6902 487.009C11.0936 487.526 11.8382 486.893 12.0129 486.26C12.1834 485.685 12.3582 484.877 12.9904 484.823C12.7034 484.531 12.4164 484.244 12.1294 483.957C12.0129 484.19 11.8964 484.531 12.0129 484.765M53.5714 436.998C54.1454 436.54 54.7194 436.078 55.2935 435.561C54.316 435.157 53.0514 435.674 52.6521 436.711C52.9391 436.827 53.2262 436.94 53.5714 436.998ZM55.3517 434.295C56.6162 434.583 58.0554 434.237 59.087 433.375C57.7684 433.317 56.4457 433.604 55.3517 434.295ZM9.60034 492.706C9.54209 492.419 9.48387 492.131 9.48387 491.898C8.38989 492.302 7.87411 493.797 8.50637 494.776C8.73514 494.03 9.08039 493.339 9.60034 492.706ZM3.10306 522.053C2.81605 522.457 3.04481 523.149 3.56477 523.207C3.85179 522.286 3.79354 521.308 3.5065 520.329C2.93247 520.617 2.75778 521.42 3.10302 521.941" fill="#1C7361"/>
<path d="M41.8455 443.216C41.9578 443.386 42.0743 443.615 42.1908 443.79C41.6708 444.536 40.6933 444.881 39.8323 444.652C40.294 444.019 40.9845 443.561 41.729 443.386" fill="#1C7361"/>
<path d="M37.3032 446.897C38.1101 446.609 38.9712 446.435 39.8322 446.493C39.6617 447.759 37.532 448.105 37.0162 446.897" fill="#1C7361"/>
<path d="M34.4289 444.248C34.9489 443.445 35.9222 442.87 36.958 442.982C37.1867 443.561 37.0162 444.248 36.5545 444.652C35.7517 444.769 34.7742 444.881 34.2002 444.248" fill="#1C7361"/>
<path d="M195.547 448.046C195.892 447.992 196.237 448.334 196.179 448.679C196.121 449.025 195.721 449.258 195.376 449.142C194.856 448.567 194.34 447.934 193.825 447.301C194.399 446.839 195.43 447.243 195.547 447.934" fill="#1C7361"/>
<path d="M39.6035 439.53C40.007 439.072 40.8098 439.072 41.2715 439.472C40.5228 440.221 39.5453 440.738 38.5095 441.083C38.3972 440.45 38.9712 439.705 39.6035 439.759" fill="#1C7361"/>
<path d="M30.1778 493.052C30.6936 492.302 32.0746 492.59 32.2451 493.51C31.5546 493.398 30.8101 493.627 30.3483 494.143C30.0613 494.26 29.5996 494.031 29.5996 493.685C29.5455 493.398 29.8908 493.052 30.2319 493.106" fill="#1C7361"/>
<path d="M63.0553 456.221C63.3423 456.105 63.7458 455.988 64.0328 456.105C64.378 456.221 64.5486 456.738 64.3198 456.967C63.2258 457.658 61.9613 458.062 60.6968 458.12C61.275 457.312 62.136 456.679 63.0553 456.221Z" fill="#1C7361"/>
<path d="M80.0097 636.056C80.5879 636.46 81.2202 636.864 81.7942 637.264C80.5297 637.784 79.0364 637.497 78.0006 636.577C77.7719 636.173 78.2294 635.598 78.6329 635.598C79.1487 635.54 79.6104 635.827 80.0097 636.056Z" fill="#1C7361"/>
<path d="M53.7419 450.924C53.4549 450.062 53.6837 449.025 54.3742 448.392C54.8359 448.28 55.2935 447.934 55.4682 447.413C56.2127 447.701 56.9032 447.992 57.652 448.28C56.3874 449.142 55.0647 450.004 53.7419 450.924Z" fill="#1C7361"/>
<path d="M25.6938 512.733C25.6938 512.388 25.6938 512.042 25.6938 511.696C26.2678 511.409 26.9001 511.409 27.4159 511.638C26.3843 512.733 25.8061 514.228 25.9226 515.723C25.2903 515.265 24.5998 514.745 23.9093 514.287C24.4875 513.824 25.1198 513.308 25.752 512.787" fill="#1C7361"/>
<path d="M21.9003 461.918C22.1291 460.132 23.1648 458.52 24.5998 457.429C25.0033 457.141 25.6356 456.967 25.8644 457.371C24.5998 458.637 23.5641 460.073 22.8195 461.685C22.6448 461.976 22.1873 462.147 21.9003 461.918Z" fill="#1C7361"/>
<path d="M27.8194 497.595C28.9674 496.733 30.0614 495.871 31.2094 495.005C30.9224 496.1 30.6354 497.079 30.3484 498.17C29.9449 498.403 29.6579 498.807 29.2586 499.036C28.8551 499.265 28.2811 499.324 27.9941 498.92C27.7611 498.516 28.3934 497.941 28.6263 498.345C28.3934 498.116 28.1064 497.883 27.8194 497.595Z" fill="#1C7361"/>
<path d="M71.6199 452.998C71.5034 453.285 71.3911 453.573 71.5034 453.918C70.5841 454.089 69.7231 454.264 68.9162 454.435C68.8039 454.78 68.6874 455.126 68.5751 455.472C67.8846 455.413 67.1941 455.413 66.5618 455.413C65.9878 455.126 66.5618 454.322 67.1359 454.035C68.2839 453.456 69.4943 453.11 70.7589 452.94C70.5842 452.652 70.4136 452.423 70.2389 452.136C71.1582 451.386 72.2522 450.87 73.4584 450.524C73.6872 450.924 73.7454 451.386 73.6331 451.844C73.2297 452.019 72.8262 452.078 72.4227 451.961C72.4809 452.248 72.5392 452.536 72.5974 452.881C72.1939 452.998 71.9069 453.056 71.6199 452.998Z" fill="#1C7361"/>
<path d="M26.6713 458.408C27.1288 458.12 27.7611 458.004 28.281 458.12C28.0481 457.833 27.8776 457.541 27.7028 457.254C28.281 457.142 28.8551 457.025 29.4873 456.967C29.7161 456.392 29.7161 455.701 29.4873 455.126C30.1196 455.068 30.8101 455.184 31.3841 455.413C31.5546 455.642 31.6129 455.988 31.5546 456.275C31.2676 456.392 30.9224 456.509 30.5771 456.621C30.4648 457.2 30.2901 457.775 30.1778 458.349C29.8908 458.52 29.4291 458.578 29.0838 458.466C28.568 461.573 25.1738 463.355 23.9675 466.233C23.564 467.211 23.1647 468.477 22.129 468.477C21.842 468.132 21.9002 467.499 22.2995 467.211C21.9002 467.095 21.555 466.982 21.2097 466.866C21.1515 466.233 22.1872 466.408 22.703 466.807C23.1647 466.408 22.7613 465.483 22.1872 465.483C22.8195 464.967 23.223 464.163 23.3353 463.355C23.9675 463.413 24.5998 463.184 25.0033 462.722C24.5416 462.839 24.0258 462.493 23.9093 461.977C24.8286 462.147 25.752 461.285 25.6938 460.365C26.3843 459.961 27.0706 459.557 27.7611 459.153C27.4741 458.982 27.0706 458.695 26.6713 458.408Z" fill="#1C7361"/>
<path d="M207.214 461.456C205.95 459.732 204.627 458.062 203.021 456.621C200.779 454.609 197.905 452.823 197.443 449.833C210.954 461.285 221.357 476.419 227.159 493.164C227.679 493.626 227.105 494.663 226.473 494.488C221.415 482.807 214.918 471.642 207.214 461.456Z" fill="#1C7361"/>
<path d="M55.4681 452.365C57.8225 450.466 60.5262 448.679 61.5037 445.802C61.7907 444.998 62.5935 444.365 63.3423 443.903C74.9517 436.594 88.5203 432.567 102.197 432.338C95.3586 434.179 88.5743 435.961 81.736 437.806C71.1041 440.625 63.284 449.429 56.1004 457.833C49.8901 465.141 43.6258 472.45 37.4197 479.813C36.6709 481.829 35.9805 483.898 35.2359 485.914C34.9489 486.834 34.6036 487.755 33.7967 488.329C33.0521 488.908 31.7876 488.908 31.3259 488.042C34.0837 483.211 36.8456 478.318 39.6617 473.425C44.1457 465.829 48.6256 458.004 55.4681 452.365Z" fill="#1C7361"/>
<path d="M340.127 428.422C311.83 492.853 289.573 559.692 255.798 621.685C250.643 631.146 241.062 652.371 232.443 661" fill="#1C7361"/>
</g>
<defs>
<clipPath id="clip0_39_92">
<rect width="313" height="363" fill="white" transform="translate(94)"/>
</clipPath>
<clipPath id="clip1_39_92">
<rect width="750" height="249" fill="white" transform="translate(0 412)"/>
</clipPath>
</defs>
</svg>
